<?xml version="1.0" encoding="UTF-8" standalone="no"?>
<svg
   xmlns:dc="http://purl.org/dc/elements/1.1/"
   xmlns:cc="http://creativecommons.org/ns#"
   xmlns:rdf="http://www.w3.org/1999/02/22-rdf-syntax-ns#"
   xmlns:svg="http://www.w3.org/2000/svg"
   xmlns="http://www.w3.org/2000/svg"
   xmlns:xlink="http://www.w3.org/1999/xlink"
   xmlns:sodipodi="http://sodipodi.sourceforge.net/DTD/sodipodi-0.dtd"
   xmlns:inkscape="http://www.inkscape.org/namespaces/inkscape"
   viewBox="0 0 442.86801 115.568"
   version="1.1"
   id="svg44"
   sodipodi:docname="logo.svg"
   width="442.86801"
   height="115.568"
   inkscape:version="1.0 (4035a4fb49, 2020-05-01)">
  <metadata
     id="metadata48">
    <rdf:RDF>
      <cc:Work
         rdf:about="">
        <dc:format>image/svg+xml</dc:format>
        <dc:type
           rdf:resource="http://purl.org/dc/dcmitype/StillImage" />
        <dc:title></dc:title>
      </cc:Work>
    </rdf:RDF>
  </metadata>
  <sodipodi:namedview
     inkscape:document-rotation="0"
     pagecolor="#ffffff"
     bordercolor="#666666"
     borderopacity="1"
     objecttolerance="10"
     gridtolerance="10"
     guidetolerance="10"
     inkscape:pageopacity="0"
     inkscape:pageshadow="2"
     inkscape:window-width="2560"
     inkscape:window-height="1044"
     id="namedview46"
     showgrid="false"
     fit-margin-left="22"
     lock-margins="true"
     fit-margin-top="22"
     fit-margin-right="22"
     fit-margin-bottom="22"
     inkscape:zoom="2.8003534"
     inkscape:cx="312.80159"
     inkscape:cy="62.076584"
     inkscape:window-x="0"
     inkscape:window-y="0"
     inkscape:window-maximized="1"
     inkscape:current-layer="svg44" />
  <defs
     id="defs2" />
  <defs
     id="defs5">
    <path
       id="a"
       d="M 1.963,72.795 H 401 V 0.261 H 1.963 Z" />
  </defs>
  <clipPath
     id="b">
    <use
       overflow="visible"
       xlink:href="#a"
       id="use7"
       x="0"
       y="0"
       width="100%"
       height="100%" />
  </clipPath>
  <path
     fill="#020204"
     d="m 290.182,54.435 1.945,-0.495 c 0.288,0.637 0.504,1.272 0.504,1.91 1.225,-1.273 2.519,-1.91 3.887,-1.91 0.646,0 1.295,0.143 1.799,0.495 0.575,0.354 1.007,0.707 1.223,1.202 0.218,0.565 0.289,1.06 0.289,1.556 v 9.331 h -1.943 v -8.342 c 0,-0.637 -0.072,-1.061 -0.072,-1.343 a 2.828,2.828 0 0 0 -0.432,-0.778 c -0.287,-0.283 -0.719,-0.424 -1.367,-0.424 -0.504,0 -1.079,0.141 -1.729,0.495 -0.648,0.353 -1.223,0.707 -1.654,1.201 v 9.19 h -1.944 v -9.19 c 0,-0.777 -0.071,-1.414 -0.071,-1.696 a 8.698,8.698 0 0 0 -0.435,-1.202 z m -5.255,9.543 0.793,1.274 c -1.151,0.989 -2.59,1.554 -4.246,1.554 -1.727,0 -3.094,-0.564 -4.103,-1.768 -0.937,-1.131 -1.438,-2.756 -1.438,-4.807 0,-1.061 0.071,-1.908 0.288,-2.614 0.214,-0.707 0.719,-1.485 1.511,-2.405 0.792,-0.848 1.942,-1.343 3.455,-1.343 1.438,0 2.447,0.354 3.166,1.13 0.648,0.708 1.079,1.415 1.297,2.193 0.215,0.707 0.358,1.768 0.358,3.181 v 0.283 h -7.845 v 0.282 c 0,0.636 0.072,1.132 0.144,1.556 0.073,0.494 0.287,0.919 0.504,1.344 0.288,0.354 0.719,0.707 1.297,0.99 0.503,0.21 1.079,0.353 1.726,0.353 1.225,0 2.23,-0.425 3.093,-1.203 z m -6.764,-4.736 h 5.759 c 0,-0.637 -0.073,-1.202 -0.145,-1.625 -0.072,-0.425 -0.288,-0.921 -0.647,-1.415 -0.36,-0.495 -1.008,-0.777 -2.089,-0.777 -0.863,0 -1.581,0.282 -2.087,0.989 -0.504,0.636 -0.791,1.557 -0.791,2.828 z m -6.478,-4.525 -0.718,1.415 a 19.674,19.674 0 0 0 -1.657,-0.637 c -0.432,-0.142 -0.937,-0.213 -1.512,-0.213 -0.719,0 -1.295,0.143 -1.728,0.567 a 1.959,1.959 0 0 0 -0.575,1.413 c 0,0.494 0.071,0.848 0.36,1.132 0.215,0.283 0.719,0.565 1.438,0.705 l 1.656,0.354 c 2.231,0.495 3.31,1.627 3.31,3.393 0,1.202 -0.431,2.191 -1.293,2.899 -0.865,0.777 -2.017,1.131 -3.385,1.131 -1.727,0 -3.239,-0.424 -4.606,-1.202 l 0.72,-1.483 c 1.296,0.776 2.592,1.201 3.959,1.201 0.793,0 1.439,-0.212 1.872,-0.564 0.431,-0.425 0.718,-0.921 0.718,-1.558 0,-1.061 -0.718,-1.767 -2.085,-2.049 l -1.585,-0.283 c -1.008,-0.282 -1.799,-0.707 -2.375,-1.272 -0.504,-0.636 -0.792,-1.343 -0.792,-2.121 0,-1.131 0.434,-2.05 1.296,-2.756 0.792,-0.707 1.871,-1.062 3.168,-1.062 a 7.879,7.879 0 0 1 3.814,0.99 z m -22.527,-5.796 2.015,-0.354 0.215,1.273 c 0,0.354 0.073,0.919 0.073,1.555 v 2.828 l -0.073,1.696 c 0.36,-0.353 0.936,-0.777 1.654,-1.271 a 4.972,4.972 0 0 1 2.52,-0.708 c 0.792,0 1.44,0.213 2.016,0.566 0.649,0.354 1.009,0.776 1.152,1.201 0.143,0.425 0.215,0.849 0.215,1.132 0,0.211 0.073,0.564 0.073,0.848 v 8.837 h -1.944 v -8.483 c 0,-0.919 -0.214,-1.484 -0.503,-1.838 -0.36,-0.353 -0.792,-0.495 -1.439,-0.495 -1.297,0 -2.52,0.637 -3.67,2.05 v 8.767 h -1.944 V 51.396 c -0.001,-0.919 -0.147,-1.698 -0.36,-2.475 z m -3.599,6.291 -1.08,1.344 c -0.432,-0.354 -0.864,-0.637 -1.152,-0.778 -0.358,-0.141 -0.719,-0.211 -1.224,-0.211 -0.433,0 -0.936,0.141 -1.367,0.424 -0.433,0.212 -0.792,0.636 -1.152,1.272 -0.358,0.637 -0.503,1.908 -0.503,3.747 0,1.343 0.216,2.403 0.791,3.182 0.504,0.707 1.296,1.061 2.304,1.061 1.007,0 1.943,-0.424 2.662,-1.345 l 1.079,1.273 c -1.079,1.061 -2.373,1.625 -3.813,1.625 -1.8,0 -3.095,-0.635 -3.957,-1.838 -0.792,-1.13 -1.225,-2.615 -1.225,-4.383 0,-1.271 0.145,-2.332 0.503,-3.11 0.288,-0.849 0.864,-1.625 1.656,-2.403 0.791,-0.777 1.799,-1.132 3.095,-1.132 0.72,0 1.368,0.071 1.872,0.283 a 7.975,7.975 0 0 1 1.511,0.989 z m -22.313,0.354 c 1.654,-1.132 3.382,-1.627 5.18,-1.627 1.802,0 2.881,0.354 3.168,1.132 0.361,0.778 0.505,1.343 0.575,1.555 v 1.909 l -0.07,4.029 v 0.566 c 0,0.776 0.07,1.343 0.216,1.697 0.071,0.282 0.359,0.564 0.791,0.778 l -1.007,1.343 c -0.937,-0.214 -1.44,-0.851 -1.729,-1.769 -1.079,1.132 -2.303,1.625 -3.6,1.625 -0.718,0 -1.293,-0.07 -1.798,-0.211 a 3.148,3.148 0 0 1 -1.151,-0.706 c -0.359,-0.354 -0.649,-0.708 -0.792,-1.203 a 3.227,3.227 0 0 1 -0.289,-1.343 c 0,-1.415 0.576,-2.476 1.728,-3.253 1.152,-0.776 2.808,-1.202 4.895,-1.202 l 0.936,0.072 v -0.85 c 0,-0.493 -0.07,-0.918 -0.07,-1.131 0,-0.283 -0.217,-0.636 -0.505,-0.989 -0.287,-0.354 -0.792,-0.495 -1.511,-0.495 -0.433,0 -0.792,0.071 -1.153,0.142 -0.431,0.07 -0.791,0.213 -1.223,0.354 l -0.863,0.424 c -0.217,0.142 -0.432,0.282 -0.792,0.565 z m 7.052,4.737 -1.007,-0.071 c -0.937,0 -1.729,0.071 -2.304,0.212 -0.576,0.213 -1.008,0.495 -1.439,0.849 -0.432,0.424 -0.575,1.061 -0.575,1.839 0,1.555 0.719,2.262 2.16,2.262 0.646,0 1.222,-0.141 1.798,-0.494 0.505,-0.354 0.936,-0.85 1.224,-1.414 z m -11.588,-5.586 -0.719,1.415 c -0.719,-0.282 -1.225,-0.495 -1.655,-0.637 a 5.555,5.555 0 0 0 -1.513,-0.213 c -0.72,0 -1.295,0.143 -1.727,0.567 -0.434,0.353 -0.647,0.847 -0.647,1.413 0,0.494 0.144,0.848 0.359,1.132 0.288,0.283 0.72,0.565 1.438,0.705 l 1.656,0.354 c 2.231,0.495 3.383,1.627 3.383,3.393 0,1.202 -0.433,2.191 -1.295,2.899 -0.937,0.777 -2.017,1.131 -3.455,1.131 a 9.298,9.298 0 0 1 -4.606,-1.202 l 0.791,-1.483 c 1.296,0.776 2.592,1.201 3.959,1.201 0.791,0 1.367,-0.212 1.8,-0.564 0.503,-0.425 0.72,-0.921 0.72,-1.558 0,-1.061 -0.649,-1.767 -2.088,-2.049 l -1.512,-0.283 c -1.079,-0.282 -1.871,-0.707 -2.374,-1.272 -0.505,-0.636 -0.792,-1.343 -0.792,-2.121 0,-1.131 0.432,-2.05 1.225,-2.756 0.862,-0.707 1.87,-1.062 3.237,-1.062 1.367,0 2.591,0.355 3.815,0.99 z m -17.058,-0.282 1.942,-0.565 c 0.146,0.354 0.288,0.637 0.361,0.92 0,0.21 0.071,0.564 0.071,0.918 v 0.212 c 0.431,-0.637 1.009,-1.13 1.584,-1.484 0.575,-0.424 1.224,-0.565 1.87,-0.565 h 0.433 c 0.072,0 0.143,0.07 0.287,0.142 l -0.791,2.05 c -0.216,-0.07 -0.432,-0.07 -0.575,-0.07 -0.792,0 -1.44,0.212 -1.873,0.636 -0.431,0.424 -0.718,0.777 -0.792,1.061 -0.07,0.284 -0.143,0.637 -0.143,1.131 v 7.706 h -1.943 v -9.402 c 0,-0.707 0,-1.271 -0.072,-1.555 -0.071,-0.358 -0.215,-0.711 -0.359,-1.135 z m -5.326,9.543 0.791,1.274 c -1.152,0.989 -2.59,1.554 -4.247,1.554 -1.727,0 -3.095,-0.564 -4.102,-1.768 -0.936,-1.131 -1.439,-2.756 -1.439,-4.807 0,-1.061 0.071,-1.908 0.288,-2.614 0.215,-0.707 0.719,-1.485 1.512,-2.405 0.791,-0.848 1.943,-1.343 3.454,-1.343 1.368,0 2.447,0.354 3.167,1.13 0.647,0.708 1.079,1.415 1.295,2.193 0.217,0.707 0.361,1.768 0.361,3.181 v 0.283 h -7.846 v 0.282 c 0,0.636 0.071,1.132 0.144,1.556 0.071,0.494 0.289,0.919 0.504,1.344 0.288,0.354 0.72,0.707 1.296,0.99 0.503,0.21 1.079,0.353 1.728,0.353 1.222,0 2.23,-0.425 3.094,-1.203 z m -6.766,-4.736 h 5.758 a 9.72,9.72 0 0 0 -0.144,-1.625 c -0.072,-0.425 -0.289,-0.921 -0.648,-1.415 -0.36,-0.495 -1.008,-0.777 -2.087,-0.777 -0.864,0 -1.584,0.282 -2.087,0.989 -0.504,0.636 -0.792,1.557 -0.792,2.828 z m -6.839,-10.39 v 13.713 c 0,1.343 0.074,2.264 0.074,2.616 0.071,0.426 0.144,0.708 0.144,0.848 0.072,0.143 0.144,0.354 0.144,0.495 h -1.944 c -0.144,-0.211 -0.216,-0.425 -0.216,-0.564 -0.072,-0.143 -0.072,-0.353 -0.144,-0.707 -0.072,0.141 -0.217,0.211 -0.361,0.423 -0.215,0.142 -0.503,0.354 -0.864,0.638 -0.359,0.282 -1.08,0.354 -2.087,0.354 -1.584,0 -2.807,-0.495 -3.742,-1.628 -0.864,-1.061 -1.297,-2.614 -1.297,-4.595 0,-2.616 0.577,-4.383 1.872,-5.231 1.223,-0.848 2.304,-1.272 3.095,-1.272 1.44,0 2.592,0.566 3.384,1.627 V 53.659 48.5 Z m -1.942,7.987 c -0.289,-0.425 -0.72,-0.707 -1.225,-0.92 -0.431,-0.212 -1.08,-0.353 -1.799,-0.353 -1.08,0 -1.8,0.353 -2.16,0.989 -0.432,0.707 -0.719,1.271 -0.863,1.768 a 16.382,16.382 0 0 0 -0.144,2.12 c 0,1.061 0.072,1.909 0.215,2.403 0.072,0.566 0.36,0.991 0.647,1.345 0.36,0.354 0.72,0.564 1.008,0.707 0.288,0.14 0.648,0.14 1.152,0.14 0.504,0 0.936,0 1.295,-0.14 0.36,-0.143 0.719,-0.284 1.008,-0.495 0.288,-0.212 0.503,-0.426 0.575,-0.565 0.144,-0.143 0.216,-0.354 0.289,-0.425 v -6.574 z m -13.461,7.139 0.792,1.274 c -1.151,0.989 -2.591,1.554 -4.247,1.554 -1.728,0 -3.095,-0.564 -4.103,-1.768 -0.936,-1.131 -1.439,-2.756 -1.439,-4.807 0,-1.061 0.072,-1.908 0.288,-2.614 0.288,-0.707 0.72,-1.485 1.512,-2.405 0.792,-0.848 1.943,-1.343 3.455,-1.343 1.439,0 2.446,0.354 3.167,1.13 0.648,0.708 1.152,1.415 1.368,2.193 0.144,0.707 0.288,1.768 0.288,3.181 v 0.283 h -7.846 v 0.282 c 0,0.636 0.072,1.132 0.144,1.556 0.073,0.494 0.288,0.919 0.576,1.344 0.216,0.354 0.648,0.707 1.224,0.99 0.503,0.21 1.152,0.353 1.799,0.353 1.152,0 2.16,-0.425 3.022,-1.203 z m -6.765,-4.736 h 5.758 a 9.72,9.72 0 0 0 -0.144,-1.625 c -0.073,-0.425 -0.288,-0.921 -0.648,-1.415 -0.36,-0.495 -1.007,-0.777 -2.015,-0.777 -0.936,0 -1.656,0.282 -2.159,0.989 -0.504,0.636 -0.792,1.557 -0.792,2.828 z m -7.845,-10.321 c 0.433,0 0.792,0.141 1.08,0.423 0.289,0.284 0.432,0.638 0.432,1.062 0,0.424 -0.144,0.778 -0.432,1.132 -0.288,0.282 -0.647,0.424 -1.08,0.424 -0.432,0 -0.791,-0.142 -1.08,-0.424 -0.288,-0.354 -0.503,-0.637 -0.503,-1.061 0,-0.426 0.144,-0.778 0.432,-1.133 0.287,-0.282 0.647,-0.423 1.151,-0.423 z m -1.081,5.373 2.088,-0.354 v 12.584 h -2.088 z m -16.841,-4.596 h 2.375 l 5.687,10.745 c 0.288,0.495 0.576,1.131 0.936,1.909 0.288,0.708 0.575,1.272 0.719,1.625 -0.072,-0.424 -0.072,-1.2 -0.144,-2.332 -0.072,-1.132 -0.072,-2.05 -0.072,-2.828 l -0.144,-9.119 h 2.087 v 16.825 h -2.159 l -5.543,-10.321 c -0.575,-1.061 -0.935,-1.838 -1.223,-2.403 -0.288,-0.565 -0.576,-1.132 -0.719,-1.627 0.072,1.132 0.144,1.98 0.144,2.476 0.072,0.494 0.072,1.202 0.072,2.12 l 0.072,9.756 h -2.087 V 49.698 Z m -4.031,4.525 -0.648,1.484 h -2.591 v 7.847 c 0,0.706 0.144,1.202 0.36,1.484 0.216,0.214 0.648,0.354 1.223,0.354 0.504,0 0.936,-0.072 1.225,-0.212 l 0.288,1.201 c -0.648,0.354 -1.368,0.495 -2.16,0.495 -0.647,0 -1.223,-0.142 -1.871,-0.424 -0.648,-0.354 -1.008,-1.133 -1.008,-2.333 v -8.413 h -1.656 v -1.484 h 1.656 v -0.141 c 0,-0.566 0.072,-1.415 0.215,-2.616 v -0.282 l 2.088,-0.425 c -0.072,0.425 -0.144,0.919 -0.216,1.555 -0.072,0.566 -0.072,1.202 -0.072,1.909 h 3.167 z m -10.437,0.494 -0.792,1.415 c -0.648,-0.282 -1.151,-0.495 -1.656,-0.637 a 4.696,4.696 0 0 0 -1.439,-0.213 c -0.72,0 -1.295,0.143 -1.728,0.567 -0.432,0.353 -0.647,0.847 -0.647,1.413 0,0.494 0.144,0.848 0.359,1.132 0.216,0.283 0.721,0.565 1.439,0.705 l 1.656,0.354 c 2.231,0.495 3.382,1.627 3.382,3.393 0,1.202 -0.503,2.191 -1.367,2.899 -0.864,0.777 -2.015,1.131 -3.382,1.131 -1.728,0 -3.239,-0.424 -4.607,-1.202 l 0.792,-1.483 c 1.223,0.776 2.591,1.201 3.959,1.201 0.719,0 1.367,-0.212 1.799,-0.564 0.503,-0.425 0.719,-0.921 0.719,-1.558 0,-1.061 -0.719,-1.767 -2.087,-2.049 l -1.511,-0.283 c -1.08,-0.282 -1.872,-0.707 -2.375,-1.272 -0.576,-0.636 -0.792,-1.343 -0.792,-2.121 0,-1.131 0.359,-2.05 1.223,-2.756 0.792,-0.707 1.872,-1.062 3.167,-1.062 1.441,0.001 2.665,0.355 3.888,0.99 z m -19.074,-5.443 c 1.08,0 2.015,0.212 2.951,0.636 0.936,0.425 1.872,1.273 2.736,2.545 0.864,1.272 1.295,3.182 1.295,5.868 0,1.697 -0.216,3.04 -0.575,4.101 -0.36,1.061 -1.081,2.05 -2.16,2.969 -1.079,0.989 -2.447,1.413 -4.174,1.413 -1.008,0 -1.944,-0.14 -2.735,-0.493 -0.792,-0.424 -1.728,-1.132 -2.735,-2.264 -0.936,-1.132 -1.439,-3.11 -1.439,-6.078 0,-2.688 0.576,-4.809 1.799,-6.364 1.223,-1.556 2.878,-2.333 5.037,-2.333 z m 0,1.626 c -0.792,0 -1.583,0.211 -2.231,0.565 -0.648,0.354 -1.223,0.919 -1.656,1.768 -0.432,0.849 -0.719,2.333 -0.719,4.312 0,1.272 0.144,2.476 0.359,3.465 0.144,1.061 0.433,1.907 0.792,2.403 0.288,0.564 0.792,0.99 1.511,1.343 0.72,0.354 1.44,0.564 2.16,0.564 1.368,0 2.376,-0.422 2.951,-1.2 0.648,-0.777 1.007,-1.485 1.224,-2.264 0.215,-0.775 0.288,-1.836 0.288,-3.251 0,-2.403 -0.216,-4.1 -0.648,-5.019 -0.504,-0.92 -1.008,-1.626 -1.655,-2.05 -0.648,-0.425 -1.439,-0.636 -2.376,-0.636 z"
     clip-path="url(#b)"
     id="path10"
     transform="translate(20.037,21.739)"
     style="fill:#ffffff" />
  <path
     fill="#e30712"
     d="m 383.248,12.865 h 3.169 v 26.018 h -3.169 z m 13.532,0 h 4.031 l -10.652,12.231 10.58,13.787 h -4.031 L 386.631,25.096 Z"
     clip-path="url(#b)"
     id="path12"
     transform="translate(20.037,21.739)"
     style="fill:#ffffff" />
  <path
     fill="none"
     stroke="#ffffff"
     stroke-linecap="round"
     stroke-linejoin="round"
     stroke-miterlimit="10"
     stroke-width="0.04"
     d="m 383.248,12.865 h 3.169 v 26.018 h -3.169 z m 13.532,0 h 4.031 l -10.652,12.231 10.58,13.787 h -4.031 L 386.631,25.096 Z"
     clip-path="url(#b)"
     id="path14"
     transform="translate(20.037,21.739)"
     style="fill:#ffffff" />
  <path
     fill="#e30712"
     d="m 360.505,12.865 h 6.189 c 1.654,0 3.023,0.142 4.103,0.424 1.008,0.354 1.942,0.777 2.806,1.484 0.793,0.636 1.369,1.414 1.802,2.333 0.359,0.918 0.575,1.909 0.575,2.898 0,2.122 -0.649,3.818 -1.942,5.161 -1.298,1.273 -2.952,1.98 -5.111,1.98 h -0.36 c 0.504,0.423 1.009,0.848 1.44,1.343 0.358,0.495 0.862,1.061 1.295,1.626 0.504,0.636 1.296,1.838 2.52,3.605 1.151,1.696 2.302,3.464 3.455,5.162 h -3.961 c -0.358,-0.92 -1.222,-2.334 -2.446,-4.243 -1.294,-1.909 -2.446,-3.535 -3.526,-4.878 -1.008,-1.343 -1.728,-2.122 -2.088,-2.333 -0.433,-0.212 -0.936,-0.282 -1.583,-0.282 v 11.736 h -3.166 V 12.865 Z m 3.166,2.616 v 9.685 h 2.808 c 2.23,0 3.814,-0.423 4.751,-1.272 0.935,-0.849 1.439,-2.121 1.439,-3.959 0,-0.777 -0.289,-1.625 -0.722,-2.333 -0.504,-0.778 -1.15,-1.273 -1.941,-1.626 -0.865,-0.282 -1.944,-0.495 -3.312,-0.495 z m -23.68,-2.616 h 14.395 l -0.36,2.616 h -10.869 v 8.483 h 9.072 v 2.688 h -9.072 v 9.543 h 11.661 v 2.688 h -14.827 z"
     clip-path="url(#b)"
     id="path16"
     transform="translate(20.037,21.739)"
     style="fill:#ffffff" />
  <path
     fill="none"
     stroke="#ffffff"
     stroke-linecap="round"
     stroke-linejoin="round"
     stroke-miterlimit="10"
     stroke-width="0.04"
     d="m 339.991,12.865 h 14.395 l -0.36,2.616 h -10.869 v 8.483 h 9.072 v 2.688 h -9.072 v 9.543 h 11.661 v 2.688 h -14.827 z"
     clip-path="url(#b)"
     id="path18"
     transform="translate(20.037,21.739)"
     style="fill:#ffffff" />
  <path
     fill="#e30712"
     d="m 304.868,12.865 h 3.453 l 3.311,15.201 c 0.432,1.766 0.72,3.393 0.937,4.807 0.215,1.415 0.358,2.474 0.504,3.111 0.144,-1.061 0.358,-2.192 0.576,-3.323 0.214,-1.13 0.504,-2.544 0.935,-4.241 l 3.456,-15.554 h 3.598 l 3.672,16.119 c 0.358,1.626 0.646,3.111 0.862,4.384 0.288,1.272 0.433,2.121 0.505,2.616 0.144,-1.061 0.358,-2.05 0.503,-3.041 0.145,-0.989 0.504,-2.616 1.008,-5.019 L 331.5,12.866 h 3.166 l -6.045,26.018 h -4.176 l -3.238,-14.423 c -0.432,-1.768 -0.72,-3.252 -0.863,-4.383 -0.216,-1.131 -0.433,-2.192 -0.504,-3.041 -0.144,0.919 -0.287,1.837 -0.505,2.828 -0.144,1.061 -0.505,2.474 -0.863,4.313 l -3.238,14.706 h -4.103 z m -17.635,-0.354 5.109,10.534 a 130.019,130.019 0 0 1 1.727,3.959 28.316,28.316 0 0 1 1.152,3.535 96.212,96.212 0 0 1 -0.217,-3.677 c -0.144,-1.625 -0.144,-2.827 -0.144,-3.534 l -0.144,-10.817 h 5.11 v 26.372 h -5.614 l -4.607,-10.11 c -1.15,-2.546 -2.015,-4.454 -2.52,-5.727 -0.575,-1.343 -0.934,-2.262 -1.079,-2.899 0.073,0.849 0.146,1.98 0.217,3.605 0,1.557 0.072,2.9 0.072,3.889 l 0.145,11.242 h -5.184 V 12.511 Z m -12.165,0 -0.719,4.313 h -9.141 v 6.151 h 7.63 v 4.313 h -7.63 v 6.999 h 10.221 v 4.596 H 259.81 V 12.511 Z"
     clip-path="url(#b)"
     id="path20"
     transform="translate(20.037,21.739)"
     style="fill:#ffffff" />
  <path
     fill="none"
     stroke="#ffffff"
     stroke-linecap="round"
     stroke-linejoin="round"
     stroke-miterlimit="10"
     stroke-width="0.04"
     d="m 275.068,12.511 -0.719,4.313 h -9.141 v 6.151 h 7.63 v 4.313 h -7.63 v 6.999 h 10.221 v 4.596 H 259.81 V 12.511 Z"
     clip-path="url(#b)"
     id="path22"
     transform="translate(20.037,21.739)"
     style="fill:#ffffff" />
  <path
     fill="#e30712"
     d="m 255.778,12.511 -0.935,4.455 h -6.406 v 21.917 h -5.469 V 16.966 h -6.551 v -4.455 z"
     clip-path="url(#b)"
     id="path24"
     transform="translate(20.037,21.739)"
     style="fill:#ffffff" />
  <path
     fill="none"
     stroke="#ffffff"
     stroke-linecap="round"
     stroke-linejoin="round"
     stroke-miterlimit="10"
     stroke-width="0.04"
     d="m 255.778,12.511 -0.935,4.455 h -6.406 v 21.917 h -5.469 V 16.966 h -6.551 v -4.455 z"
     clip-path="url(#b)"
     id="path26"
     transform="translate(20.037,21.739)"
     style="fill:#ffffff" />
  <path
     fill="#e30712"
     d="m 219.142,12.511 5.184,10.534 a 138.157,138.157 0 0 1 1.728,3.959 c 0.431,1.272 0.863,2.404 1.15,3.535 -0.07,-0.849 -0.145,-2.05 -0.216,-3.677 -0.143,-1.625 -0.217,-2.827 -0.217,-3.534 l -0.07,-10.817 h 5.11 v 26.372 h -5.615 l -4.605,-10.11 c -1.152,-2.546 -2.015,-4.454 -2.521,-5.727 -0.575,-1.343 -0.935,-2.262 -1.078,-2.899 0.07,0.849 0.144,1.98 0.144,3.605 0.071,1.557 0.144,2.9 0.144,3.889 l 0.145,11.242 H 213.17 V 12.511 Z m -12.091,0 -0.721,4.313 h -9.14 v 6.151 h 7.629 v 4.313 h -7.629 v 6.999 h 10.149 v 4.596 H 191.791 V 12.511 Z"
     clip-path="url(#b)"
     id="path28"
     transform="translate(20.037,21.739)"
     style="fill:#ffffff" />
  <path
     fill="none"
     stroke="#ffffff"
     stroke-linecap="round"
     stroke-linejoin="round"
     stroke-miterlimit="10"
     stroke-width="0.04"
     d="m 207.051,12.511 -0.721,4.313 h -9.14 v 6.151 h 7.629 v 4.313 h -7.629 v 6.999 h 10.149 v 4.596 H 191.791 V 12.511 Z"
     clip-path="url(#b)"
     id="path30"
     transform="translate(20.037,21.739)"
     style="fill:#ffffff" />
  <path
     fill="#e30712"
     d="m 171.854,12.511 c 0.575,0 1.223,0.072 2.016,0.072 0.864,0.07 1.727,0.07 2.662,0.141 2.376,0.141 4.536,1.273 6.551,3.181 1.943,1.979 2.951,5.302 2.951,9.898 0,3.676 -0.648,6.434 -1.944,8.2 -1.294,1.697 -2.52,2.898 -3.671,3.605 -1.151,0.708 -2.375,1.06 -3.598,1.06 -0.289,0 -0.937,0.071 -1.872,0.144 -1.008,0 -1.656,0.07 -1.943,0.07 h -6.55 V 12.51 h 5.398 z m 0.072,22.058 h 2.951 c 3.383,0 5.11,-2.757 5.11,-8.271 0,-1.696 -0.072,-3.11 -0.288,-4.312 -0.145,-1.202 -0.504,-2.192 -1.007,-3.041 -0.432,-0.777 -1.007,-1.343 -1.728,-1.697 -0.647,-0.354 -1.512,-0.566 -2.52,-0.566 h -2.519 V 34.569 Z M 145.654,12.511 v 17.321 c 0,1.556 0.217,2.758 0.72,3.605 0.432,0.92 1.584,1.344 3.383,1.344 1.152,0 2.087,-0.212 2.807,-0.778 0.72,-0.495 1.152,-1.131 1.224,-1.837 0.072,-0.636 0.145,-1.556 0.145,-2.757 V 12.512 h 5.47 v 19.796 a 10.64,10.64 0 0 1 -0.576,2.475 c -0.36,1.06 -1.295,2.051 -2.808,3.04 -1.438,0.991 -3.526,1.556 -6.117,1.556 -4.247,0 -6.838,-0.778 -7.774,-2.262 -1.007,-1.556 -1.583,-2.616 -1.728,-3.394 -0.216,-0.707 -0.288,-1.697 -0.288,-2.828 V 12.513 h 5.542 z m -9.429,0 -0.864,4.455 h -6.405 v 21.917 h -5.471 V 16.966 h -6.549 v -4.455 z"
     clip-path="url(#b)"
     id="path32"
     transform="translate(20.037,21.739)"
     style="fill:#ffffff" />
  <path
     fill="none"
     stroke="#ffffff"
     stroke-linecap="round"
     stroke-linejoin="round"
     stroke-miterlimit="10"
     stroke-width="0.04"
     d="m 136.225,12.511 -0.864,4.455 h -6.405 v 21.917 h -5.471 V 16.966 h -6.549 v -4.455 z"
     clip-path="url(#b)"
     id="path34"
     transform="translate(20.037,21.739)"
     style="fill:#ffffff" />
  <path
     fill="#e30712"
     d="m 110.89,18.168 a 22.04,22.04 0 0 0 -3.239,-1.555 10.72,10.72 0 0 0 -3.023,-0.425 c -1.079,0 -1.943,0.283 -2.663,0.848 -0.72,0.495 -1.08,1.273 -1.08,2.191 0,0.637 0.216,1.203 0.648,1.556 0.432,0.424 1.224,0.777 2.375,1.06 l 3.239,0.848 c 4.534,1.273 6.766,3.889 6.766,7.848 0,2.687 -1.008,4.878 -3.022,6.434 -2.016,1.625 -4.679,2.474 -8.062,2.474 -1.584,0 -3.095,-0.211 -4.679,-0.635 a 20.257,20.257 0 0 1 -4.461,-1.769 l 2.015,-4.101 a 29.456,29.456 0 0 0 3.814,1.556 c 1.08,0.353 2.231,0.565 3.527,0.565 3.167,0 4.751,-1.202 4.751,-3.605 0,-1.696 -1.151,-2.828 -3.527,-3.464 l -2.951,-0.778 C 99.95,26.862 98.871,26.439 98.007,25.873 97.143,25.378 96.424,24.601 95.848,23.61 95.2,22.62 94.912,21.348 94.912,19.863 c 0,-2.404 0.864,-4.312 2.663,-5.867 1.799,-1.486 4.103,-2.263 6.909,-2.263 1.656,0 3.312,0.212 4.823,0.707 1.584,0.424 2.951,1.131 4.175,1.979 z M 74.902,11.522 c -1.297,15.978 -2.592,23.26 -4.32,30.046 -1.511,6.079 -4.605,12.019 -9.788,16.755 -4.391,4.029 -9.357,6.715 -15.834,8.554 -5.543,1.556 -13.533,2.687 -20.082,3.465 -5.398,0.636 -9.861,0.989 -11.3,1.061 l -0.504,0.425 c 5.327,-0.072 38.22,-0.072 38.507,-0.143 21.665,-0.212 23.537,-18.381 23.68,-22.481 0.072,-3.252 0.072,-25.167 0.072,-34.642 v -3.534 z"
     clip-path="url(#b)"
     id="path36"
     transform="translate(20.037,21.739)"
     style="fill:#ffffff" />
  <path
     fill="#c00b0b"
     d="m 61.082,58.605 c 5.182,-4.807 8.349,-10.815 9.861,-16.896 1.727,-6.927 3.095,-14.351 4.39,-30.682 l -3.239,1.556 c -1.007,14.775 -2.664,22.057 -4.318,28.35 -2.52,9.402 -10.365,18.945 -23.752,23.327 -4.535,1.486 -12.452,2.689 -19.075,3.396 -3.31,0.423 -6.333,0.637 -8.564,0.848 -0.648,0.071 -1.224,0.071 -1.728,0.142 l -1.583,3.183 c 0,0 20.874,-1.485 31.958,-4.596 6.549,-1.84 11.587,-4.527 16.05,-8.628 z"
     clip-path="url(#b)"
     id="path38"
     transform="translate(20.037,21.739)"
     style="fill:#f2f2f2" />
  <path
     fill="#e30712"
     d="M 42.08,2.191 C 35.747,2.191 31.572,2.26 28.765,2.403 20.847,2.967 14.945,5.654 11.275,9.684 6.021,15.481 5.085,21.137 4.725,25.237 4.58,26.722 4.58,31.53 4.58,37.327 c 0,7.707 0.072,17.25 0.072,22.623 v 0.282 h 0.36 C 6.595,44.468 7.532,39.378 9.475,32.802 12.713,21.844 20.775,11.381 35.314,7.28 46.399,4.17 63.169,2.686 63.169,2.686 V 2.332 C 54.316,2.191 47.406,2.191 42.08,2.191 Z"
     clip-path="url(#b)"
     id="path40"
     transform="translate(20.037,21.739)"
     style="fill:#ffffff" />
  <path
     fill="#c00b0b"
     d="M 5.084,25.309 C 5.444,21.208 6.379,15.694 11.562,9.967 15.161,6.009 20.919,3.321 28.765,2.827 33.948,2.473 43.953,2.473 63.098,2.686 h 0.072 l 1.44,-3.041 -1.512,-0.07 C 57.772,-0.355 29.053,-0.283 28.765,-0.283 22.863,-0.212 18.112,1.06 14.369,3.11 8.754,6.291 5.588,11.027 3.933,15.34 2.277,19.581 1.989,23.399 1.917,25.237 1.845,28.63 1.845,50.477 1.845,59.949 v 1.766 l 3.167,-1.484 v -0.282 c 0,-9.472 -0.216,-31.388 0.072,-34.64 z"
     clip-path="url(#b)"
     id="path42"
     transform="translate(20.037,21.739)"
     style="fill:#f2f2f2" />
  <g
     style="font-style:normal;font-weight:normal;font-size:26.6667px;line-height:1.25;font-family:sans-serif;letter-spacing:0px;word-spacing:0px;fill:#ffffff;fill-opacity:1;stroke:none"
     id="text52"
     aria-label="API">
    <path
       id="path29"
       style="font-style:normal;font-variant:normal;font-weight:bold;font-stretch:condensed;font-size:26.6667px;font-family:'Fira Sans Condensed';-inkscape-font-specification:'Fira Sans Condensed, Bold Condensed';fill:#ffffff"
       d="m 51.070746,67.101845 -0.826668,-4.026672 h -4.693339 l -0.826668,4.026672 h -4.320006 l 4.986673,-18.480024 h 5.120007 l 4.960006,18.480024 z m -4.880007,-7.093343 h 3.413338 l -1.706669,-8.266677 z" />
    <path
       id="path31"
       style="font-style:normal;font-variant:normal;font-weight:bold;font-stretch:condensed;font-size:26.6667px;font-family:'Fira Sans Condensed';-inkscape-font-specification:'Fira Sans Condensed, Bold Condensed';fill:#ffffff"
       d="m 61.924073,48.621821 q 3.546671,0 5.440007,1.520002 1.920002,1.520002 1.920002,4.480006 0,3.120004 -1.866669,4.720006 -1.840002,1.573335 -5.09334,1.573335 h -1.413335 v 6.186675 H 56.644066 V 48.621821 Z m 0.05333,9.200012 q 1.493336,0 2.213336,-0.720001 0.720001,-0.746667 0.720001,-2.453336 0,-1.520002 -0.720001,-2.240003 -0.693334,-0.746668 -2.213336,-0.746668 h -1.066668 v 6.160008 z" />
    <path
       id="path33"
       style="font-style:normal;font-variant:normal;font-weight:bold;font-stretch:condensed;font-size:26.6667px;font-family:'Fira Sans Condensed';-inkscape-font-specification:'Fira Sans Condensed, Bold Condensed';fill:#ffffff"
       d="M 75.417388,48.621821 V 67.101845 H 71.150716 V 48.621821 Z" />
  </g>
</svg>
